<?xml version="1.0" encoding="UTF-8"?>
<!DOCTYPE svg PUBLIC "-//W3C//DTD SVG 1.1//EN" "http://www.w3.org/Graphics/SVG/1.1/DTD/svg11.dtd">
<!-- Creator: CorelDRAW -->
<svg xmlns="http://www.w3.org/2000/svg" xml:space="preserve" width="512px" height="512px" version="1.1" style="shape-rendering:geometricPrecision; text-rendering:geometricPrecision; image-rendering:optimizeQuality; fill-rule:evenodd; clip-rule:evenodd"
viewBox="0 0 512 512"
 xmlns:xlink="http://www.w3.org/1999/xlink">
 <defs>
  <style type="text/css">
   <![CDATA[
    .fil0 {fill:black}
   ]]>
  </style>
 </defs>
 <g id="Layer_x0020_1">
  <metadata id="CorelCorpID_0Corel-Layer"/>
  <g id="_476491816">
   <g>
    <g>
     <path class="fil0" d="M440 512l-368 0c-20,0 -36,-16 -36,-36l0 -440c0,-20 16,-36 36,-36l368 0c20,0 36,16 36,36l0 440c0,20 -16,36 -36,36zm-368 -498c-12,0 -22,10 -22,22l0 440c0,12 10,22 22,22l368 0c12,0 22,-10 22,-22l0 -440c0,-12 -10,-22 -22,-22l-368 0z"/>
    </g>
    <g>
     <g>
      <g>
       <path class="fil0" d="M240 219l-137 0c-4,0 -7,-3 -7,-7 0,-21 0,-27 0,-30l0 0c2,-28 36,-35 47,-36l7 -8c2,-3 7,-4 10,-1 3,2 4,7 1,10l-8 11c-1,1 -3,3 -5,3 -1,0 -35,2 -37,23 0,0 0,0 0,0 0,2 0,11 0,21l122 0 0 -21c-1,-21 -36,-23 -37,-23 -2,0 -4,-2 -5,-3l-8 -11c-3,-3 -2,-8 1,-10 3,-3 8,-2 11,1l6 8c11,1 46,8 47,37l0 28c-1,5 -4,8 -8,8z"/>
      </g>
      <g>
       <path class="fil0" d="M155 150c-4,0 -8,-3 -8,-7l0 -9c0,-4 4,-8 8,-8 4,0 7,4 7,8l0 9c0,4 -3,7 -7,7z"/>
      </g>
      <g>
       <path class="fil0" d="M188 150c-4,0 -8,-3 -8,-7l0 -10c0,-4 4,-7 8,-7 4,0 7,3 7,7l0 10c0,4 -3,7 -7,7z"/>
      </g>
      <g>
       <path class="fil0" d="M171 146c-21,0 -37,-16 -37,-37l0 -13c-2,-8 -5,-24 1,-32 11,-14 31,-21 50,-16 15,4 25,15 27,29 0,1 0,1 0,1 0,4 -1,13 -4,18l0 13c-1,20 -17,37 -37,37zm-22 -49l0 12c0,12 10,22 22,22 12,0 22,-10 22,-22l0 -13 -4 -4c0,0 -1,1 -2,1 -2,1 -6,3 -12,1 -6,-3 -13,-5 -18,-6l-8 9zm6 -24c1,0 1,0 2,0 0,0 12,3 22,7 0,-1 0,-1 0,-1 0,-3 1,-6 4,-8 3,-1 7,0 9,2l5 6c0,0 0,0 0,0 -2,-12 -12,-16 -16,-17 -11,-3 -25,-1 -34,10 0,1 -1,4 0,7l3 -4c1,-1 3,-2 5,-2z"/>
      </g>
     </g>
     <g>
      <g>
       <path class="fil0" d="M412 466l-312 0c-4,0 -8,-4 -8,-8 0,-4 4,-7 8,-7l312 0c4,0 8,3 8,7 0,4 -4,8 -8,8z"/>
      </g>
      <g>
       <path class="fil0" d="M412 404l-312 0c-4,0 -8,-3 -8,-7 0,-4 4,-8 8,-8l312 0c4,0 8,4 8,8 0,4 -4,7 -8,7z"/>
      </g>
      <g>
       <path class="fil0" d="M412 342l-312 0c-4,0 -8,-3 -8,-7 0,-4 4,-8 8,-8l312 0c4,0 8,4 8,8 0,4 -4,7 -8,7z"/>
      </g>
      <g>
       <path class="fil0" d="M412 281l-312 0c-4,0 -8,-3 -8,-8 0,-4 4,-7 8,-7l312 0c4,0 8,4 8,8 0,4 -4,7 -8,7z"/>
      </g>
      <g>
       <path class="fil0" d="M412 219l-146 0c-4,0 -8,-3 -8,-7 0,-4 4,-8 8,-8l146 0c4,0 8,4 8,8 0,4 -4,7 -8,7z"/>
      </g>
      <g>
       <path class="fil0" d="M412 158l-146 0c-4,0 -8,-3 -8,-7 0,-5 4,-8 8,-8l146 0c4,0 8,3 8,8 0,4 -4,7 -8,7z"/>
      </g>
     </g>
    </g>
   </g>
  </g>
 </g>
</svg>
